<svg width="40" height="33" viewBox="0 0 40 33" fill="none" xmlns="http://www.w3.org/2000/svg">
<g clip-path="url(#clip0_1_650)">
<path d="M35.3263 0.394775H30.6526C29.9368 0.394775 29.3474 0.984249 29.3474 1.70004V7.21583H22.8211C22.9053 7.63688 22.9474 8.05793 22.9474 8.52109C22.9474 8.94214 22.9053 9.4053 22.8211 9.82635H29.3474V24.5632C29.3474 25.279 29.9368 25.8685 30.6526 25.8685H35.3263C36.5053 25.8685 37.4316 26.8369 37.4316 27.9737C37.4316 29.1106 36.5053 30.079 35.3263 30.079H2.56842V9.78425H9.09474C9.01053 9.3632 8.96842 8.94214 8.96842 8.47898C8.96842 8.05793 9.01053 7.59478 9.09474 7.17372H1.30526C0.589474 7.17372 0 7.7632 0 8.47898V31.3C0 32.0158 0.589474 32.6053 1.30526 32.6053H35.3263C37.8947 32.6053 40 30.5 40 27.9316V5.11056C40 2.50004 37.8947 0.394775 35.3263 0.394775ZM37.4316 23.7632C36.8 23.4264 36.0842 23.2579 35.3263 23.2579H31.9579V3.0053H35.3263C36.5053 3.0053 37.4316 3.93162 37.4316 5.11056V23.7632Z" fill="#51367B"/>
<path d="M7.78946 16.5636C7.41051 16.9846 7.49472 17.6162 7.91577 17.9951C8.21051 18.2899 8.58946 18.5425 8.9263 18.753L7.2842 22.2899C7.15788 22.5846 7.11577 22.8793 7.15788 23.1741L7.66314 26.0793C7.74735 26.4583 8.25262 26.5425 8.42104 26.1636L11.3263 19.932C12.4631 20.353 13.7263 20.6057 14.9895 20.6899V21.2793C14.9895 21.8267 15.4526 22.2899 16 22.2899C16.5474 22.2899 17.0105 21.8267 17.0105 21.2793V20.6899C18.3158 20.6057 19.5368 20.353 20.6737 19.932L23.5789 26.1636C23.7474 26.5425 24.2947 26.4583 24.3368 26.0793L24.8421 23.1741C24.8842 22.8793 24.8421 22.5425 24.7158 22.2899L23.0737 18.753C23.4526 18.5004 23.7895 18.2478 24.0842 17.9951C24.5052 17.6162 24.5474 16.9846 24.1684 16.5636C23.7895 16.1425 23.1579 16.1004 22.7368 16.4793C22.5684 16.6478 22.3579 16.7741 22.1895 16.9425L19.4947 11.1741C20.0421 10.4583 20.3789 9.53198 20.3789 8.56356C20.3789 6.58461 19.0737 4.9425 17.3052 4.35303V2.62671C17.3052 2.33198 17.0526 2.07935 16.7579 2.07935H15.2C14.9052 2.07935 14.6526 2.33198 14.6526 2.62671V4.31093C12.8421 4.85829 11.5789 6.5425 11.5789 8.52145C11.5789 9.48987 11.9158 10.4162 12.4631 11.132L9.76841 16.9004C9.55788 16.7741 9.38946 16.6057 9.22104 16.4793C8.75788 16.1004 8.1263 16.1425 7.78946 16.5636ZM15.9579 6.79514C16.9263 6.79514 17.6842 7.55303 17.6842 8.52145C17.6842 9.48987 16.9263 10.2478 15.9579 10.2478C14.9895 10.2478 14.2316 9.48987 14.2316 8.52145C14.2316 7.55303 15.0316 6.79514 15.9579 6.79514ZM14.6526 12.732C15.0737 12.8583 15.4947 12.9425 15.9579 12.9425C16.421 12.9425 16.8421 12.8583 17.2631 12.732L19.7895 18.1215C18.9052 18.4162 17.9789 18.6267 16.9684 18.7109V18.2057C16.9684 17.6583 16.5052 17.1951 15.9579 17.1951C15.4105 17.1951 14.9474 17.6583 14.9474 18.2057V18.7109C13.9789 18.6267 13.0105 18.4162 12.1263 18.1215L14.6526 12.732Z" fill="#51367B"/>
</g>
<defs>
<clipPath id="clip0_1_650">
<rect width="40" height="32.2105" fill="white" transform="translate(0 0.394775)"/>
</clipPath>
</defs>
</svg>
