<svg width="40" height="33" viewBox="0 0 40 33" fill="none" xmlns="http://www.w3.org/2000/svg">
<g clip-path="url(#clip0_1_630)">
<path d="M38.9485 5.71137H7.19243V1.37909C7.19243 0.8323 6.72976 0.369629 6.18297 0.369629H3.65931C1.64038 0.369629 0 2.01001 0 4.02893V28.9711C0 30.99 1.64038 32.6304 3.65931 32.6304H38.9905C39.5373 32.6304 40 32.1677 40 31.6209V6.72159C39.9579 6.1748 39.4953 5.71213 38.9485 5.71213V5.71137ZM1.97687 4.02893C1.97687 3.10359 2.73396 2.3465 3.65931 2.3465H5.21556V25.3546H3.65931C3.07045 25.3546 2.4816 25.4808 1.97687 25.7752V4.02893ZM31.6299 30.6535H3.65931C2.73396 30.6535 1.97687 29.8964 1.97687 28.9711C1.97687 28.0458 2.73396 27.2887 3.65931 27.2887H6.18297C6.72976 27.2887 7.19243 26.826 7.19243 26.2792V7.68899H31.6299V30.6535ZM37.9811 30.6535H33.6067V27.6252H34.9947C35.5415 27.6252 36.0042 27.1625 36.0042 26.6157C36.0042 26.0689 35.5415 25.6062 34.9947 25.6062H33.6067V22.5778H34.9947C35.5415 22.5778 36.0042 22.1152 36.0042 21.5684C36.0042 21.0216 35.5415 20.5589 34.9947 20.5589H33.6067V17.5305H34.9947C35.5415 17.5305 36.0042 17.0678 36.0042 16.521C36.0042 15.9743 35.5415 15.5116 34.9947 15.5116H33.6067V12.4832H34.9947C35.5415 12.4832 36.0042 12.0205 36.0042 11.4737C36.0042 10.9269 35.5415 10.4643 34.9947 10.4643H33.6067V7.68899H37.9811V30.6535Z" fill="#51367B"/>
<path d="M12.2397 16.7315C12.7865 16.7315 13.2492 16.2688 13.2492 15.722V13.0301H15.9411C16.4879 13.0301 16.9506 12.5674 16.9506 12.0206C16.9506 11.4738 16.4879 11.0532 15.9404 11.0532H12.239C11.6922 11.0532 11.2295 11.5159 11.2295 12.0627V15.7641C11.2716 16.2688 11.6922 16.7315 12.239 16.7315H12.2397Z" fill="#51367B"/>
<path d="M12.2397 27.3307H26.5405C27.0873 27.3307 27.5499 26.868 27.5499 26.3212V19.4232C27.5499 18.8764 27.0873 18.4138 26.5405 18.4138H20.3996V15.7219C20.3996 15.1751 19.9369 14.7124 19.3901 14.7124C18.8433 14.7124 18.3807 15.1751 18.3807 15.7219V18.4138H15.8991C15.3523 18.4138 14.8896 18.8764 14.8896 19.4232C14.8896 19.97 15.3523 20.4327 15.8991 20.4327H25.531V25.3538H13.2492V22.6619C13.2492 22.1151 12.7865 21.6525 12.2397 21.6525C11.693 21.6525 11.2303 22.1151 11.2303 22.6619V26.3633C11.2723 26.868 11.693 27.3307 12.2405 27.3307H12.2397Z" fill="#51367B"/>
<path d="M22.8391 13.0299H25.531V15.7218C25.531 16.2686 25.9937 16.7313 26.5405 16.7313C27.0873 16.7313 27.5499 16.2686 27.5499 15.7218V12.0205C27.5499 11.4737 27.0873 11.011 26.5405 11.011H22.8391C22.2923 11.011 21.8297 11.4737 21.8297 12.0205C21.8297 12.5672 22.2923 13.0299 22.8391 13.0299Z" fill="#51367B"/>
</g>
<defs>
<clipPath id="clip0_1_630">
<rect width="40" height="32.2608" fill="white" transform="translate(0 0.369629)"/>
</clipPath>
</defs>
</svg>
