<svg width="40" height="41" viewBox="0 0 40 41" fill="none" xmlns="http://www.w3.org/2000/svg">
<path d="M40 20.5004C40 19.4825 39.9218 18.4723 39.7696 17.4783C39.7696 17.372 39.7534 17.2657 39.7185 17.1645C39.0306 13.0972 37.0969 9.31311 34.1419 6.35727C30.3918 2.60719 25.305 0.5 20.0004 0.5C15.8337 0.5 11.8021 1.8002 8.44661 4.17525C8.28334 4.19651 8.12602 4.25943 7.99252 4.35978C7.86241 4.45842 7.76122 4.58682 7.69489 4.73308C7.05372 5.23394 6.43976 5.77562 5.85812 6.35727C2.10719 10.109 0 15.1959 0 20.5004C0 23.9512 0.892876 27.3101 2.54852 30.2685C2.59019 30.4598 2.69138 30.6341 2.83594 30.7668C3.6727 32.1665 4.68547 33.4701 5.85812 34.6427C7.7204 36.505 9.91262 37.9617 12.2979 38.9574C12.4441 39.0765 12.6261 39.1522 12.8217 39.1675C15.0913 40.04 17.5225 40.5008 20.0004 40.5008C25.305 40.5008 30.3918 38.3937 34.1427 34.6427C35.2907 33.4947 36.2831 32.2218 37.1096 30.8561C37.1811 30.8051 37.2474 30.7447 37.3035 30.6741C37.4192 30.5278 37.488 30.3527 37.505 30.1715C39.1267 27.2361 40 23.9138 40 20.5004ZM36.6309 27.6264C33.7932 21.9749 26.4734 18.1823 20.2887 19.4825C18.0344 16.906 17.0939 13.0504 17.4681 9.41856C21.2045 9.25869 24.9351 9.89986 28.4079 11.3038C32.0253 12.7656 35.2695 15.0173 37.9056 17.8907C38.0306 18.7495 38.0952 19.6212 38.0952 20.5004C38.0952 22.975 37.5867 25.3959 36.6309 27.6273V27.6264ZM11.8778 28.1179C9.88966 24.9036 8.61923 21.2938 8.15664 17.5369C7.67193 13.5998 8.08946 9.60563 9.37265 5.85556C11.877 4.03834 14.8107 2.89036 17.8924 2.52895C14.3745 7.78672 14.7061 16.0241 18.8882 20.7657C17.8337 23.907 15.0947 26.5941 11.8778 28.1179ZM37.0297 14.3821C34.6827 12.3463 32.0092 10.706 29.1129 9.53676C25.5167 8.08434 21.6646 7.39215 17.7971 7.49675C18.2631 5.56728 19.1271 3.78833 20.3907 2.4099C25.0481 2.51025 29.4947 4.40399 32.7958 7.70508C34.7006 9.60904 36.1368 11.8948 37.0305 14.3829L37.0297 14.3821ZM6.68722 8.24591C5.99077 11.3744 5.83176 14.6074 6.22632 17.8048C6.70933 21.7156 8.00867 25.4759 10.0342 28.845C8.0818 29.4649 6.0452 29.646 4.16165 29.2489C2.69478 26.5941 1.9048 23.5881 1.9048 20.5004C1.9048 15.9519 3.61912 11.5802 6.68722 8.24676V8.24591ZM5.51627 31.3459C5.76883 31.3612 6.02224 31.368 6.27649 31.3671C8.11497 31.3671 9.98576 30.976 11.7554 30.2727C11.854 30.2498 11.9475 30.2115 12.0326 30.1596C16.0037 28.4972 19.4162 25.2599 20.7079 21.3431C24.1451 20.6169 28.0644 21.7683 31.0602 23.9886C29.2651 27.2999 26.7752 30.1886 23.7582 32.4539C20.5974 34.8273 16.9417 36.4531 13.0658 37.2142C10.8948 36.3137 8.89985 34.9897 7.20594 33.2966C6.59368 32.6844 6.03074 32.0321 5.51712 31.3476L5.51627 31.3459ZM32.7958 33.2949C29.4028 36.6887 24.799 38.5952 20.0004 38.5952C18.855 38.5952 17.7215 38.4855 16.6117 38.2738C19.5906 37.3154 22.3959 35.8647 24.9095 33.9735C28.0346 31.6223 30.6308 28.6477 32.5373 25.2437C33.8978 26.5728 34.9446 28.1511 35.4829 29.8646C34.7346 31.1018 33.8358 32.2549 32.7958 33.2949Z" fill="#51367B"/>
</svg>
