<svg width="40" height="35" viewBox="0 0 40 35" fill="none" xmlns="http://www.w3.org/2000/svg">
<g clip-path="url(#clip0_1_638)">
<path d="M27.8664 32.8643H2.1468V2.13559H27.8664V17.5L30.0132 15.3953V1.84093C30.0132 0.830673 29.1713 0.0308838 28.161 0.0308838H1.85214C0.841884 0.0308838 0 0.830673 0 1.84093V33.159C0 34.1693 0.841884 34.9691 1.85214 34.9691H28.161C29.1713 34.9691 30.0132 34.1693 30.0132 33.159V28.5707L27.8664 30.7175V32.8643Z" fill="#51367B"/>
<path d="M7.53486 8.91281H22.4362C23.0255 8.91281 23.4886 8.44978 23.4886 7.86046C23.4886 7.27114 23.0255 6.80811 22.4362 6.80811H7.53486C6.94554 6.80811 6.48251 7.27114 6.48251 7.86046C6.48251 8.44978 6.94554 8.91281 7.53486 8.91281Z" fill="#51367B"/>
<path d="M7.53486 15.3531H22.4362C23.0255 15.3531 23.4886 14.8901 23.4886 14.3008C23.4886 13.7114 23.0255 13.2484 22.4362 13.2484H7.53486C6.94554 13.2484 6.48251 13.7114 6.48251 14.3008C6.48251 14.8901 6.94554 15.3531 7.53486 15.3531Z" fill="#51367B"/>
<path d="M23.5306 20.6994C23.5306 20.1101 23.0676 19.6471 22.4783 19.6471H7.53485C6.94553 19.6471 6.4825 20.1101 6.4825 20.6994C6.4825 21.2888 6.94553 21.7518 7.53485 21.7518H22.4362C23.0255 21.7939 23.5306 21.2888 23.5306 20.6994Z" fill="#51367B"/>
<path d="M6.4825 27.14C6.4825 27.7293 6.94553 28.1923 7.53485 28.1923H19.7843L20.2473 26.0455H7.53485C6.94553 26.0876 6.4825 26.5507 6.4825 27.14Z" fill="#51367B"/>
<path d="M39.779 14.7217L37.2533 12.1961C36.9587 11.9014 36.4957 11.9014 36.201 12.1961L34.5172 13.8799L38.0952 17.4579L39.779 15.7741C40.0737 15.5215 40.0737 15.0164 39.779 14.7217Z" fill="#51367B"/>
<path d="M24.8769 23.5378L33.2995 15.1129L36.8715 18.6842L28.4489 27.109L24.8769 23.5378Z" fill="#51367B"/>
<path d="M22.6467 30.2542L25.8879 29.4965C26.0142 29.4544 26.1405 29.4123 26.2668 29.286L27.2349 28.3179L23.6569 24.7399L22.6888 25.708C22.6046 25.7922 22.5204 25.9185 22.4783 26.0869L21.7206 29.3281C21.5943 29.9175 22.0994 30.3805 22.6467 30.2542Z" fill="#51367B"/>
</g>
<defs>
<clipPath id="clip0_1_638">
<rect width="40" height="34.9382" fill="white" transform="translate(0 0.0308838)"/>
</clipPath>
</defs>
</svg>
