<svg width="30" height="30" viewBox="0 0 30 30" fill="none" xmlns="http://www.w3.org/2000/svg">
<path d="M14.927 11.5248C14.927 12.2326 14.3532 12.8065 13.6454 12.8065C12.9377 12.8065 12.3638 12.2326 12.3638 11.5248C12.3638 10.8169 12.9377 10.2433 13.6454 10.2433C14.3532 10.2433 14.927 10.8168 14.927 11.5248Z" fill="black"/>
<path d="M20.9145 11.5248C20.9145 12.2326 20.3406 12.8065 19.6327 12.8065C18.925 12.8065 18.3512 12.2326 18.3512 11.5248C18.3512 10.8169 18.925 10.2433 19.6327 10.2433C20.3406 10.2433 20.9145 10.8168 20.9145 11.5248Z" fill="black"/>
<path d="M16.5931 18.3969C14.4216 18.3969 12.4653 16.9731 12.1065 15.1093C12.0369 14.7475 12.2739 14.3976 12.6357 14.328C12.9976 14.2582 13.3474 14.4954 13.417 14.8572C13.6279 15.9528 14.9398 17.1066 16.6885 17.0608C18.5101 17.0131 19.7133 15.9238 19.9605 14.8726C20.0449 14.514 20.4046 14.2918 20.763 14.3758C21.1219 14.4603 21.3442 14.8195 21.2598 15.1782C21.0579 16.0363 20.5053 16.8313 19.7035 17.4171C18.8685 18.0276 17.8378 18.3657 16.7236 18.3951C16.6801 18.3964 16.6365 18.3969 16.5931 18.3969Z" fill="black"/>
<path d="M27.5955 12.2205C27.3489 10.764 26.7705 9.39884 25.8759 8.16284C24.8655 6.76679 23.4833 5.60114 21.8787 4.79204C20.2569 3.97424 18.4467 3.54179 16.6437 3.54179C16.1351 3.54179 15.6223 3.57629 15.1197 3.64409C13.0146 3.92849 10.9448 4.80419 9.2913 6.10994C7.4283 7.58114 6.22605 9.47264 5.81475 11.5803C5.6922 12.2068 5.64 12.9 5.58945 13.5702C5.51025 14.6193 5.42835 15.7041 5.09475 16.413C4.86675 16.8975 4.52655 17.2201 3.6069 17.2201C3.1008 17.2201 2.63835 17.5063 2.41245 17.9593C2.1867 18.4123 2.2365 18.954 2.541 19.3579C3.92655 21.196 5.73465 22.3093 7.6383 22.9801C7.5516 23.242 7.50285 23.5209 7.50285 23.8119C7.50285 25.2735 8.6877 26.4583 10.1493 26.4583C11.5748 26.4583 12.7337 25.3306 12.7902 23.9191C13.4108 23.9529 16.3656 23.961 16.6952 23.9517C16.7682 25.348 17.9202 26.4583 19.3346 26.4583C20.796 26.4583 21.9809 25.2736 21.9809 23.8119C21.9809 23.4787 21.9167 23.1612 21.8045 22.8676C22.8422 22.3629 23.8217 21.6817 24.6764 20.8614C25.8683 19.7176 26.7431 18.3682 27.2066 16.959C27.7281 15.3729 27.8592 13.7785 27.5955 12.2205ZM10.1493 24.6852C9.66705 24.6852 9.276 24.2944 9.276 23.8119C9.276 23.3296 9.66705 22.9386 10.1493 22.9386C10.6317 22.9386 11.0226 23.3296 11.0226 23.8119C11.0226 24.2944 10.6317 24.6852 10.1493 24.6852ZM19.3346 24.6852C18.8522 24.6852 18.4611 24.2944 18.4611 23.8119C18.4611 23.3296 18.8522 22.9386 19.3346 22.9386C19.817 22.9386 20.2078 23.3296 20.2078 23.8119C20.208 24.2944 19.817 24.6852 19.3346 24.6852ZM25.9388 16.5421C25.1745 18.8656 23.1602 20.7843 21.0135 21.7666C20.5564 21.391 19.972 21.1657 19.3347 21.1657C18.3075 21.1657 17.4191 21.7516 16.9806 22.6068C16.5342 22.6252 13.2104 22.6138 12.483 22.564C12.0372 21.732 11.1597 21.1657 10.1495 21.1657C9.47745 21.1657 8.8656 21.418 8.3991 21.8308C6.591 21.2466 4.8834 20.2482 3.60705 18.5545C7.3812 18.5545 6.63645 14.3368 7.1247 11.8357C7.86855 8.02394 11.6396 5.46089 15.2984 4.96664C15.7484 4.90589 16.1984 4.87634 16.6437 4.87634C22.6571 4.87649 28.0098 10.2453 25.9388 16.5421Z" fill="black"/>
</svg>
